<svg id="visual" viewBox="0 0 3840 2160" width="3840" height="2160" xmlns="http://www.w3.org/2000/svg" xmlns:xlink="http://www.w3.org/1999/xlink" version="1.1"><rect x="0" y="0" width="3840" height="2160" fill="#042940"></rect><defs><linearGradient id="grad1_0" x1="43.8%" y1="0%" x2="100%" y2="100%"><stop offset="14.444444444444446%" stop-color="#042940" stop-opacity="1"></stop><stop offset="85.55555555555554%" stop-color="#042940" stop-opacity="1"></stop></linearGradient></defs><defs><linearGradient id="grad2_0" x1="0%" y1="0%" x2="56.3%" y2="100%"><stop offset="14.444444444444446%" stop-color="#042940" stop-opacity="1"></stop><stop offset="85.55555555555554%" stop-color="#042940" stop-opacity="1"></stop></linearGradient></defs><g transform="translate(3840, 0)"><path d="M0 1944C-254.4 1919.5 -508.8 1895.1 -743.9 1796C-979.1 1697 -1195.1 1523.3 -1315.9 1315.9C-1436.7 1108.6 -1462.4 867.5 -1551.2 642.5C-1640 417.6 -1792 208.8 -1944 0L0 0Z" fill="#005C53"></path></g><g transform="translate(0, 2160)"><path d="M0 -1944C232.8 -1823.9 465.6 -1703.7 652.9 -1576.1C840.1 -1448.6 981.7 -1313.6 1186.5 -1186.5C1391.3 -1059.5 1659.3 -940.4 1796 -743.9C1932.8 -547.5 1938.4 -273.8 1944 0L0 0Z" fill="#005C53"></path></g></svg>